<mxfile host="app.diagrams.net" modified="2021-12-21T01:01:18.295Z" agent="5.0 (Windows NT 10.0; Win64; x64) AppleWebKit/537.36 (KHTML, like Gecko) Chrome/96.0.4664.110 Safari/537.36" etag="PsMPuzKLCKbNrRPvNZb-" version="16.0.0" type="github">
  <diagram id="Ts3RU9emkoGXsp13maDd" name="Page-1">
    <mxGraphModel dx="2183" dy="802" grid="1" gridSize="10" guides="1" tooltips="1" connect="1" arrows="1" fold="1" page="1" pageScale="1" pageWidth="827" pageHeight="1169" math="0" shadow="0">
      <root>
        <mxCell id="0" />
        <mxCell id="1" parent="0" />
        <mxCell id="Gsbw1JWkaMvr1AZDmMWt-42" value="" style="edgeStyle=orthogonalEdgeStyle;rounded=0;orthogonalLoop=1;jettySize=auto;html=1;" edge="1" parent="1" source="Gsbw1JWkaMvr1AZDmMWt-2" target="Gsbw1JWkaMvr1AZDmMWt-41">
          <mxGeometry relative="1" as="geometry" />
        </mxCell>
        <mxCell id="Gsbw1JWkaMvr1AZDmMWt-2" value="START" style="ellipse;whiteSpace=wrap;html=1;" vertex="1" parent="1">
          <mxGeometry x="90" y="50" width="120" height="80" as="geometry" />
        </mxCell>
        <mxCell id="Gsbw1JWkaMvr1AZDmMWt-11" value="" style="edgeStyle=orthogonalEdgeStyle;rounded=0;orthogonalLoop=1;jettySize=auto;html=1;" edge="1" parent="1" source="Gsbw1JWkaMvr1AZDmMWt-4" target="Gsbw1JWkaMvr1AZDmMWt-10">
          <mxGeometry relative="1" as="geometry" />
        </mxCell>
        <mxCell id="Gsbw1JWkaMvr1AZDmMWt-4" value="i = 1" style="rounded=0;whiteSpace=wrap;html=1;" vertex="1" parent="1">
          <mxGeometry x="90" y="220" width="120" height="60" as="geometry" />
        </mxCell>
        <mxCell id="Gsbw1JWkaMvr1AZDmMWt-13" value="" style="edgeStyle=orthogonalEdgeStyle;rounded=0;orthogonalLoop=1;jettySize=auto;html=1;" edge="1" parent="1" source="Gsbw1JWkaMvr1AZDmMWt-10" target="Gsbw1JWkaMvr1AZDmMWt-12">
          <mxGeometry relative="1" as="geometry" />
        </mxCell>
        <mxCell id="Gsbw1JWkaMvr1AZDmMWt-57" value="" style="edgeStyle=orthogonalEdgeStyle;rounded=0;orthogonalLoop=1;jettySize=auto;html=1;startArrow=none;" edge="1" parent="1" source="Gsbw1JWkaMvr1AZDmMWt-64" target="Gsbw1JWkaMvr1AZDmMWt-56">
          <mxGeometry relative="1" as="geometry" />
        </mxCell>
        <mxCell id="Gsbw1JWkaMvr1AZDmMWt-10" value="i &amp;lt; 10" style="rhombus;whiteSpace=wrap;html=1;rounded=0;" vertex="1" parent="1">
          <mxGeometry x="110" y="310" width="80" height="80" as="geometry" />
        </mxCell>
        <mxCell id="Gsbw1JWkaMvr1AZDmMWt-15" value="" style="edgeStyle=orthogonalEdgeStyle;rounded=0;orthogonalLoop=1;jettySize=auto;html=1;" edge="1" parent="1" source="Gsbw1JWkaMvr1AZDmMWt-12" target="Gsbw1JWkaMvr1AZDmMWt-43">
          <mxGeometry relative="1" as="geometry">
            <mxPoint x="150" y="680" as="targetPoint" />
          </mxGeometry>
        </mxCell>
        <mxCell id="Gsbw1JWkaMvr1AZDmMWt-12" value="j&amp;nbsp; = 1" style="whiteSpace=wrap;html=1;rounded=0;" vertex="1" parent="1">
          <mxGeometry x="90" y="430" width="120" height="60" as="geometry" />
        </mxCell>
        <mxCell id="Gsbw1JWkaMvr1AZDmMWt-41" value="" style="shape=waypoint;sketch=0;size=6;pointerEvents=1;points=[];fillColor=default;resizable=0;rotatable=0;perimeter=centerPerimeter;snapToPoint=1;" vertex="1" parent="1">
          <mxGeometry x="130" y="200" width="40" height="40" as="geometry" />
        </mxCell>
        <mxCell id="Gsbw1JWkaMvr1AZDmMWt-45" value="" style="edgeStyle=orthogonalEdgeStyle;rounded=0;orthogonalLoop=1;jettySize=auto;html=1;" edge="1" parent="1" source="Gsbw1JWkaMvr1AZDmMWt-43" target="Gsbw1JWkaMvr1AZDmMWt-44">
          <mxGeometry relative="1" as="geometry" />
        </mxCell>
        <mxCell id="Gsbw1JWkaMvr1AZDmMWt-54" value="" style="edgeStyle=orthogonalEdgeStyle;rounded=0;orthogonalLoop=1;jettySize=auto;html=1;startArrow=none;" edge="1" parent="1" source="Gsbw1JWkaMvr1AZDmMWt-68" target="Gsbw1JWkaMvr1AZDmMWt-53">
          <mxGeometry relative="1" as="geometry" />
        </mxCell>
        <mxCell id="Gsbw1JWkaMvr1AZDmMWt-43" value="j &amp;lt; 10" style="rhombus;whiteSpace=wrap;html=1;" vertex="1" parent="1">
          <mxGeometry x="110" y="560" width="80" height="80" as="geometry" />
        </mxCell>
        <mxCell id="Gsbw1JWkaMvr1AZDmMWt-50" value="" style="edgeStyle=orthogonalEdgeStyle;rounded=0;orthogonalLoop=1;jettySize=auto;html=1;" edge="1" parent="1" source="Gsbw1JWkaMvr1AZDmMWt-44" target="Gsbw1JWkaMvr1AZDmMWt-49">
          <mxGeometry relative="1" as="geometry" />
        </mxCell>
        <mxCell id="Gsbw1JWkaMvr1AZDmMWt-44" value="i * j" style="shape=document;whiteSpace=wrap;html=1;boundedLbl=1;" vertex="1" parent="1">
          <mxGeometry x="90" y="700" width="120" height="80" as="geometry" />
        </mxCell>
        <mxCell id="Gsbw1JWkaMvr1AZDmMWt-52" value="" style="edgeStyle=orthogonalEdgeStyle;rounded=0;orthogonalLoop=1;jettySize=auto;html=1;" edge="1" parent="1" source="Gsbw1JWkaMvr1AZDmMWt-49">
          <mxGeometry relative="1" as="geometry">
            <mxPoint x="150" y="530" as="targetPoint" />
            <Array as="points">
              <mxPoint x="330" y="870" />
              <mxPoint x="330" y="530" />
              <mxPoint x="190" y="530" />
            </Array>
          </mxGeometry>
        </mxCell>
        <mxCell id="Gsbw1JWkaMvr1AZDmMWt-49" value="j = j+1" style="whiteSpace=wrap;html=1;" vertex="1" parent="1">
          <mxGeometry x="90" y="840" width="120" height="60" as="geometry" />
        </mxCell>
        <mxCell id="Gsbw1JWkaMvr1AZDmMWt-55" value="" style="edgeStyle=orthogonalEdgeStyle;rounded=0;orthogonalLoop=1;jettySize=auto;html=1;" edge="1" parent="1" source="Gsbw1JWkaMvr1AZDmMWt-53" target="Gsbw1JWkaMvr1AZDmMWt-10">
          <mxGeometry relative="1" as="geometry" />
        </mxCell>
        <mxCell id="Gsbw1JWkaMvr1AZDmMWt-53" value="" style="shape=waypoint;sketch=0;size=6;pointerEvents=1;points=[];fillColor=default;resizable=0;rotatable=0;perimeter=centerPerimeter;snapToPoint=1;" vertex="1" parent="1">
          <mxGeometry x="-30" y="330" width="40" height="40" as="geometry" />
        </mxCell>
        <mxCell id="Gsbw1JWkaMvr1AZDmMWt-56" value="end" style="ellipse;whiteSpace=wrap;html=1;rounded=0;" vertex="1" parent="1">
          <mxGeometry x="250" y="320" width="120" height="60" as="geometry" />
        </mxCell>
        <mxCell id="Gsbw1JWkaMvr1AZDmMWt-58" value="" style="shape=image;html=1;verticalAlign=top;verticalLabelPosition=bottom;labelBackgroundColor=#ffffff;imageAspect=0;aspect=fixed;image=https://cdn3.iconfinder.com/data/icons/strokeline/128/revisi_05-128.png" vertex="1" parent="1">
          <mxGeometry x="150" y="640" width="28" height="28" as="geometry" />
        </mxCell>
        <mxCell id="Gsbw1JWkaMvr1AZDmMWt-59" value="" style="shape=image;html=1;verticalAlign=top;verticalLabelPosition=bottom;labelBackgroundColor=#ffffff;imageAspect=0;aspect=fixed;image=https://cdn3.iconfinder.com/data/icons/strokeline/128/revisi_05-128.png" vertex="1" parent="1">
          <mxGeometry x="142" y="380" width="28" height="28" as="geometry" />
        </mxCell>
        <mxCell id="Gsbw1JWkaMvr1AZDmMWt-64" value="" style="shape=image;html=1;verticalAlign=top;verticalLabelPosition=bottom;labelBackgroundColor=#ffffff;imageAspect=0;aspect=fixed;image=https://cdn2.iconfinder.com/data/icons/onebit/PNG/onebit_33.png" vertex="1" parent="1">
          <mxGeometry x="200" y="341" width="18" height="18" as="geometry" />
        </mxCell>
        <mxCell id="Gsbw1JWkaMvr1AZDmMWt-67" value="" style="edgeStyle=orthogonalEdgeStyle;rounded=0;orthogonalLoop=1;jettySize=auto;html=1;endArrow=none;" edge="1" parent="1" source="Gsbw1JWkaMvr1AZDmMWt-10" target="Gsbw1JWkaMvr1AZDmMWt-64">
          <mxGeometry relative="1" as="geometry">
            <mxPoint x="190" y="350" as="sourcePoint" />
            <mxPoint x="250" y="350" as="targetPoint" />
          </mxGeometry>
        </mxCell>
        <mxCell id="Gsbw1JWkaMvr1AZDmMWt-68" value="" style="shape=image;html=1;verticalAlign=top;verticalLabelPosition=bottom;labelBackgroundColor=#ffffff;imageAspect=0;aspect=fixed;image=https://cdn2.iconfinder.com/data/icons/onebit/PNG/onebit_33.png" vertex="1" parent="1">
          <mxGeometry x="90" y="591" width="18" height="18" as="geometry" />
        </mxCell>
        <mxCell id="Gsbw1JWkaMvr1AZDmMWt-69" value="" style="edgeStyle=orthogonalEdgeStyle;rounded=0;orthogonalLoop=1;jettySize=auto;html=1;endArrow=none;" edge="1" parent="1" source="Gsbw1JWkaMvr1AZDmMWt-43" target="Gsbw1JWkaMvr1AZDmMWt-68">
          <mxGeometry relative="1" as="geometry">
            <mxPoint x="110" y="600" as="sourcePoint" />
            <mxPoint x="-10" y="350" as="targetPoint" />
          </mxGeometry>
        </mxCell>
      </root>
    </mxGraphModel>
  </diagram>
</mxfile>
